# Blender v2.80 (sub 75) OBJ File: '_Cockpit.blend'
# www.blender.org
mtllib Cockpit_Cover04.mtl
o Room_Cockpit.001_Cube.008
v 3.818884 0.660485 0.004172
v 2.179590 0.660485 0.004172
v 2.181116 -0.660485 -0.004172
v 3.820410 -0.660485 -0.004172
v 3.749301 0.604750 0.047317
v 2.249301 0.604750 0.047317
v 2.250698 -0.603974 0.039681
v 3.750698 -0.603974 0.039681
v 3.000000 0.500957 0.039738
v 3.433012 0.250957 0.039738
v 3.433012 -0.249043 0.039738
v 3.000000 -0.499043 0.039738
v 2.566987 -0.249043 0.039738
v 2.566987 0.250957 0.039738
vt 0.500000 0.500000
vt 1.000000 0.500000
vt 0.833333 0.500000
vt 0.437500 0.500000
vt 0.666667 0.500000
vt 0.500000 0.500000
vt 0.437500 0.468750
vt 0.333333 0.500000
vt 0.500000 0.468750
vt 0.500000 0.437500
vt 0.166667 0.500000
vt 0.437500 0.437500
vt 0.500000 0.500000
vt 0.500000 0.437500
vt 0.437500 0.437500
vt 0.437500 0.500000
vn -0.0082 -0.0141 0.9999
vn 0.0001 -0.0001 1.0000
vn -0.0001 -0.0001 1.0000
vn 0.0000 -0.0005 1.0000
vn -0.0119 -0.0045 0.9999
vn 0.0000 -0.0728 0.9973
vn 0.0081 -0.0141 0.9999
vn 0.0119 -0.0045 0.9999
vn 0.0000 0.6121 0.7908
vn -0.5297 -0.0060 0.8482
vn 0.0000 -0.6131 0.7900
vn 0.5297 -0.0047 0.8482
usemtl None
s off
f 5/1/1 9/2/1 10/3/1
f 8/4/2 11/5/2 12/6/2
f 7/7/3 12/6/3 13/8/3
f 12/6/4 7/7/4 8/4/4
f 8/4/5 5/1/5 10/3/5 11/5/5
f 9/2/6 5/1/6 6/9/6
f 6/10/7 14/11/7 9/2/7
f 6/10/8 7/12/8 13/8/8 14/11/8
f 6/9/9 5/1/9 1/13/9 2/14/9
f 7/12/10 6/9/10 2/14/10 3/15/10
f 4/16/11 8/4/11 7/7/11 3/15/11
f 8/4/12 4/16/12 1/13/12 5/1/12
