# Blender v2.80 (sub 75) OBJ File: '_Cockpit.blend'
# www.blender.org
mtllib Cockpit_Cover03.mtl
o Room_Cockpit.004_Cube.021
v 1.818884 0.660485 0.004172
v 0.179590 0.660485 0.004172
v 0.181116 -0.660485 -0.004172
v 1.820410 -0.660485 -0.004172
v 1.749302 0.604750 0.047317
v 0.249302 0.604750 0.047317
v 0.250698 -0.603974 0.039681
v 1.750698 -0.603974 0.039681
v 1.000000 0.500957 0.039737
v 1.475528 0.155465 0.039737
v 1.293893 -0.403551 0.039737
v 0.706107 -0.403551 0.039737
v 0.524472 0.155466 0.039737
v 0.999302 0.604750 0.047317
vt 0.437500 0.375000
vt 0.437500 0.437500
vt 0.600000 0.500000
vt 0.400000 0.500000
vt 0.200000 0.500000
vt 0.468750 0.375000
vt 0.500000 0.406250
vt 0.500000 0.375000
vt 0.000000 0.500000
vt 0.800000 0.500000
vt 0.500000 0.437500
vt 0.468750 0.437500
vt 0.000000 0.000000
vt 0.000000 0.000000
vt 0.000000 0.000000
vt 0.000000 0.000000
vt 0.000000 0.000000
vt 0.437500 0.437500
vt 0.500000 0.437500
vt 0.437500 0.375000
vn 0.0000 -0.0003 1.0000
vn 0.0092 -0.0034 1.0000
vn 0.0068 -0.0240 0.9997
vn -0.0068 -0.0241 0.9997
vn -0.0091 -0.0034 1.0000
vn 0.0000 0.6121 0.7908
vn 0.5297 -0.0047 0.8482
vn 0.0000 -0.6131 0.7900
vn -0.5297 -0.0060 0.8482
usemtl None
s off
f 7/1/1 8/2/1 11/3/1 12/4/1
f 13/5/2 6/6/2 7/1/2 12/4/2
f 14/7/3 6/8/3 13/5/3 9/9/3
f 9/9/4 10/10/4 5/11/4 14/7/4
f 10/10/5 11/3/5 8/2/5 5/12/5
f 5/13/6 1/14/6 2/15/6 6/16/6 14/17/6
f 8/2/7 4/18/7 1/19/7 5/13/7
f 4/18/8 8/2/8 7/1/8 3/20/8
f 3/20/9 7/1/9 6/6/9 2/15/9
