# Blender v2.80 (sub 75) OBJ File: '_Cockpit.blend'
# www.blender.org
mtllib Cockpit_Cover02.mtl
o Room_Cockpit.003_Cube.018
v -0.181116 0.660485 0.004172
v -1.820410 0.660485 0.004172
v -1.818884 -0.660485 -0.004172
v -0.179590 -0.660485 -0.004172
v -0.250698 0.604750 0.047317
v -1.750698 0.604750 0.047317
v -1.749302 -0.603974 0.039681
v -0.249302 -0.603974 0.039681
v -0.653805 0.344907 0.039681
v -0.653805 -0.362200 0.039681
v -1.360911 -0.362200 0.039681
v -1.360911 0.344907 0.039681
vt 0.500000 0.375000
vt 0.500000 0.312500
vt 0.250000 0.500000
vt 0.000000 0.500000
vt 0.437500 0.312500
vt 0.500000 0.500000
vt 0.437500 0.375000
vt 0.750000 0.500000
vt 1.000000 0.500000
vt 0.500000 0.375000
vt 0.500000 0.312500
vt 0.437500 0.375000
vt 0.437500 0.312500
vn 0.0000 -0.0294 0.9996
vn 0.0097 -0.0040 0.9999
vn 0.0000 0.0000 1.0000
vn -0.0094 -0.0040 0.9999
vn 0.0000 0.6121 0.7908
vn 0.5297 -0.0047 0.8482
vn 0.0000 -0.6131 0.7900
vn -0.5297 -0.0060 0.8482
usemtl None
s off
f 5/1/1 6/2/1 12/3/1 9/4/1
f 6/2/2 7/5/2 11/6/2 12/3/2
f 7/5/3 8/7/3 10/8/3 11/6/3
f 8/7/4 5/1/4 9/9/4 10/8/4
f 6/2/5 5/1/5 1/10/5 2/11/5
f 4/12/6 1/10/6 5/1/6 8/7/6
f 8/7/7 7/5/7 3/13/7 4/12/7
f 7/5/8 6/2/8 2/11/8 3/13/8
