# Blender v2.80 (sub 75) OBJ File: '_Cockpit.blend'
# www.blender.org
mtllib Cockpit_Cover01.mtl
o Room_Cockpit.002_Cube.016
v -2.181116 0.660485 0.004172
v -3.820411 0.660485 0.004172
v -2.179590 -0.660485 -0.004172
v -3.818884 -0.660485 -0.004172
v -2.250699 0.604750 0.045450
v -3.750699 0.604750 0.045450
v -2.249302 -0.603974 0.037815
v -3.749302 -0.603974 0.037815
v -3.000000 0.387801 0.037870
v -2.566988 -0.362200 0.037870
v -3.433013 -0.362200 0.037870
v -2.180986 0.660485 0.003463
v -2.179590 -0.660485 -0.004172
vt 0.500000 0.250000
vt 0.437500 0.250000
vt 0.333333 0.500000
vt -0.000000 0.500000
vt 0.437500 0.312500
vt 0.500000 0.312500
vt 1.000000 0.500000
vt 0.666667 0.500000
vt 0.437500 0.312500
vt 0.500000 0.312500
vt 0.500000 0.312500
vt 0.500000 0.250000
vt 0.437500 0.250000
vt 0.437500 0.312500
vn 0.0072 -0.0055 1.0000
vn -0.0072 -0.0055 1.0000
vn 0.0000 -0.0002 1.0000
vn 0.0000 -0.0349 0.9994
vn 0.5159 -0.0046 0.8566
vn 0.0000 0.5952 0.8036
vn -0.5130 -0.0060 0.8583
vn 0.0000 -0.5964 0.8027
usemtl None
s off
f 6/1/1 8/2/1 11/3/1 9/4/1
f 7/5/2 5/6/2 9/7/2 10/8/2
f 8/2/3 7/5/3 10/8/3 11/3/3
f 6/1/4 9/4/4 5/6/4
f 5/6/5 7/5/5 13/9/5 12/10/5
f 6/1/6 5/6/6 1/11/6 2/12/6
f 8/2/7 6/1/7 2/12/7 4/13/7
f 7/5/8 8/2/8 4/13/8 3/14/8
