# Blender v2.80 (sub 75) OBJ File: '_Cockpit.blend'
# www.blender.org
mtllib Fridge_Top.mtl
o Cube.003_Cube.013
v 0.064898 0.514320 0.933080
v 0.064898 0.514320 -0.933080
v 0.064898 -0.615928 -0.933080
v 0.064898 -0.615928 0.933080
v -0.002022 0.648160 -1.000000
v -0.002022 0.648160 1.000000
v -0.057521 0.648160 1.000000
v -0.057521 0.648160 -1.000000
v -0.057521 -0.685174 -1.000000
v -0.002022 -0.685174 -1.000000
v -0.002022 -0.685174 1.000000
v -0.057521 -0.685174 1.000000
vt 0.541667 0.484698
vt 0.625000 0.484698
vt 0.625000 0.491635
vt 0.541667 0.491635
vt 0.633365 0.500000
vt 0.633365 0.750000
vt 0.616635 0.741635
vt 0.616635 0.508365
vt 0.625000 0.758365
vt 0.539511 0.745430
vt 0.541635 0.741635
vt 0.541635 0.508365
vt 0.640302 0.500000
vt 0.640302 0.750000
vt 0.541667 0.758365
vt 0.625000 0.765302
vt 0.541667 0.765302
vn 0.0000 0.0000 -1.0000
vn 0.8944 0.4472 0.0000
vn 0.7071 0.0000 0.7071
vn 1.0000 0.0000 0.0000
vn 0.7191 -0.6949 0.0000
vn 0.7071 0.0000 -0.7071
vn 0.0000 1.0000 0.0000
vn 0.0000 0.0000 1.0000
vn -1.0000 0.0000 0.0000
usemtl None
s off
f 9/1/1 8/2/1 5/3/1 10/4/1
f 5/5/2 6/6/2 1/7/2 2/8/2
f 6/9/3 11/10/3 4/11/3 1/7/3
f 3/12/4 2/8/4 1/7/4 4/11/4
f 4/11/5 11/10/5 10/4/5 3/12/5
f 2/8/6 3/12/6 10/4/6 5/3/6
f 5/5/7 8/13/7 7/14/7 6/6/7
f 11/15/8 6/9/8 7/16/8 12/17/8
f 9/1/9 12/17/9 7/16/9 8/13/9
