# Blender v2.80 (sub 75) OBJ File: '_Cockpit.blend'
# www.blender.org
mtllib Panel_BoxCover.mtl
o Cube.010_Cube.007
v -0.305891 -0.305891 0.305891
v -0.305891 0.305891 0.305891
v 0.305891 -0.305891 0.305891
v 0.305891 0.305891 0.305891
v 0.181478 -0.023231 0.354454
v -0.305891 -0.305891 0.327642
v 0.181478 0.023231 0.354454
v -0.305891 0.305891 0.327642
v 0.258332 -0.023231 0.355221
v 0.305891 -0.305891 0.333748
v 0.258332 0.023231 0.355221
v 0.305891 0.305891 0.333748
v -0.281749 -0.281748 0.352026
v -0.281749 0.281748 0.352026
v 0.281749 0.281748 0.357650
v 0.281749 -0.281748 0.357650
v 0.181643 -0.023231 0.337922
v 0.181643 0.023231 0.337922
v 0.258497 0.023231 0.338689
v 0.258497 -0.023231 0.338689
vt 0.515697 0.890703
vt 0.515697 0.890703
vt 0.515697 0.859297
vt 0.515697 0.859297
vt 0.375000 0.250000
vt 0.625000 0.250000
vt 0.625000 0.500000
vt 0.375000 0.500000
vt 0.875000 0.500000
vt 0.875000 0.618484
vt 0.625000 0.633927
vt 0.375000 0.131516
vt 0.625000 0.131516
vt 0.375000 0.633927
vt 0.384866 0.990135
vt 0.615134 0.990135
vt 0.625000 1.000000
vt 0.375000 1.000000
vt 0.615134 0.759865
vt 0.384866 0.759865
vt 0.125000 0.618484
vt 0.365135 0.750000
vt 0.134865 0.750000
vt 0.865135 0.750000
vt 0.634865 0.750000
vt 0.125000 0.500000
vt 0.484303 0.890703
vt 0.484303 0.859297
vt 0.484303 0.859297
vt 0.484303 0.890703
vn 0.0000 -1.0000 -0.0000
vn 0.0000 0.0000 -1.0000
vn 0.0000 1.0000 0.0000
vn -1.0000 0.0000 0.0000
vn 1.0000 0.0000 0.0000
vn -0.7106 0.0000 0.7036
vn 0.7036 0.0000 0.7106
vn -0.0071 -0.7071 0.7071
vn -0.0071 0.7071 0.7071
vn -0.0052 0.0000 1.0000
vn -0.1031 0.0000 0.9947
vn -0.0100 0.0085 0.9999
vn -0.0100 -0.0085 0.9999
vn -0.0100 0.0000 1.0000
vn 1.0000 0.0000 0.0100
vn -1.0000 0.0000 -0.0100
usemtl None
s off
f 7/1/1 18/2/1 19/3/1 11/4/1
f 1/5/2 2/6/2 4/7/2 3/8/2
f 4/7/3 2/9/3 8/10/3 12/11/3
f 6/12/4 8/13/4 2/6/4 1/5/4
f 3/8/5 4/7/5 12/11/5 10/14/5
f 13/15/6 14/16/6 8/17/6 6/18/6
f 15/19/7 16/20/7 10/14/7 12/11/7
f 6/21/8 10/14/8 16/22/8 13/23/8
f 12/11/9 8/10/9 14/24/9 15/25/9
f 1/26/1 3/8/1 10/14/1 6/21/1
f 5/27/10 7/1/10 14/16/10 13/15/10
f 11/4/11 9/28/11 16/20/11 15/19/11
f 9/28/12 5/27/12 13/15/12 16/20/12
f 7/1/13 11/4/13 15/19/13 14/16/13
f 20/29/14 19/3/14 18/2/14 17/30/14
f 5/27/15 17/30/15 18/2/15 7/1/15
f 9/28/3 20/29/3 17/30/3 5/27/3
f 11/4/16 19/3/16 20/29/16 9/28/16
