# Blender v2.80 (sub 75) OBJ File: '_Cockpit.blend'
# www.blender.org
mtllib Panel_Pipe-Socket.mtl
o Pipe_Straight.001_Cube.001
v 0.000000 0.181976 -0.102682
v 0.000000 0.202275 -0.102682
v 0.000000 0.229451 -0.124905
v 0.088973 0.229451 -0.088052
v 0.125827 0.229451 0.000921
v 0.088973 0.229451 0.089894
v 0.000000 0.229451 0.126748
v -0.088973 0.229451 0.089894
v -0.125827 0.229451 0.000921
v -0.088973 0.229451 -0.088052
v 0.073259 0.181976 -0.072337
v 0.073259 0.202275 -0.072337
v 0.103603 0.181976 0.000921
v 0.103603 0.202275 0.000921
v 0.073259 0.181976 0.074180
v 0.073259 0.202275 0.074180
v 0.000000 0.181976 0.104525
v 0.000000 0.202275 0.104525
v -0.073259 0.181976 0.074180
v -0.073259 0.202275 0.074180
v -0.103603 0.181976 0.000921
v -0.103603 0.202275 0.000921
v -0.073259 0.181976 -0.072337
v -0.073259 0.202275 -0.072337
v 0.000000 0.243629 -0.159876
v 0.113700 0.243629 -0.112779
v 0.160797 0.243629 0.000921
v 0.113700 0.243629 0.114622
v 0.000000 0.243629 0.161718
v -0.113700 0.243629 0.114622
v -0.160797 0.243629 0.000921
v -0.113700 0.243629 -0.112779
v 0.000000 0.272731 -0.159876
v 0.113700 0.272731 -0.112779
v 0.160797 0.272731 0.000921
v 0.113700 0.272731 0.114622
v 0.000000 0.272731 0.161718
v -0.113700 0.272731 0.114622
v -0.160797 0.272731 0.000921
v -0.113700 0.272731 -0.112779
v -0.091593 0.272731 -0.090672
v 0.000000 0.272731 -0.128612
v -0.129532 0.272731 0.000921
v -0.091593 0.272731 0.092515
v 0.000000 0.272731 0.130453
v 0.091593 0.272731 0.092515
v 0.129533 0.272731 0.000921
v 0.091593 0.272731 -0.090672
v -0.087378 0.252714 -0.086457
v 0.000000 0.252714 -0.122650
v -0.123571 0.252714 0.000921
v -0.087378 0.252714 0.088299
v 0.000000 0.252714 0.124492
v 0.087378 0.252714 0.088299
v 0.123571 0.252714 0.000921
v 0.087378 0.252714 -0.086457
v -0.000000 0.180366 0.000921
v 0.000000 0.252714 0.000921
vt 0.875000 0.666667
vt 0.750000 0.666667
vt 0.750000 0.833333
vt 0.875000 0.833333
vt 0.500000 0.500000
vt 0.375000 0.500000
vt 0.375000 0.666667
vt 0.500000 0.666667
vt 0.250000 0.666667
vt 0.250000 0.833333
vt 0.375000 0.833333
vt 0.625000 0.666667
vt 0.625000 0.833333
vt 1.000000 0.500000
vt 0.875000 0.500000
vt 1.000000 0.666667
vt 0.250000 0.500000
vt 0.125000 0.666667
vt 0.125000 0.833333
vt 0.500000 0.833333
vt 0.750000 0.500000
vt 0.625000 0.500000
vt 0.125000 0.500000
vt 0.000000 0.666667
vt 0.000000 0.833333
vt 0.000000 0.500000
vt 1.000000 0.833333
vt 0.500000 0.500000
vt 0.500000 0.500000
vt 0.375000 0.500000
vt 0.375000 0.500000
vt 0.625000 0.500000
vt 0.250000 0.500000
vt 0.125000 0.500000
vt 0.750000 0.500000
vt 0.000000 0.500000
vt 0.875000 0.500000
vt 1.000000 0.500000
vt 0.625000 0.833333
vt 0.250000 0.500000
vt 0.125000 0.500000
vt 0.750000 0.500000
vt 0.625000 0.500000
vt 0.000000 0.500000
vt 0.125000 0.500000
vt 0.000000 0.500000
vt 1.000000 0.500000
vt 0.875000 0.500000
vt 0.875000 0.500000
vt 0.875000 0.500000
vt 0.750000 0.500000
vt 0.750000 0.500000
vt 1.000000 0.500000
vt 0.625000 0.500000
vt 0.500000 0.500000
vt 0.375000 0.500000
vt 0.250000 0.500000
vt 0.625000 0.500000
vt 0.375000 0.500000
vt 0.500000 0.500000
vt 0.375000 0.500000
vt 0.250000 0.500000
vt 0.125000 0.500000
vt 0.000000 0.500000
vt 1.000000 0.500000
vt 0.500000 0.833333
vt 0.375000 0.833333
vt 0.250000 0.833333
vt 0.125000 0.833333
vt 1.000000 0.833333
vt 0.875000 0.833333
vt 0.750000 0.833333
vn 0.8417 0.1557 -0.5171
vn 0.9608 0.1556 -0.2295
vn 0.9608 -0.1557 -0.2295
vn 0.8416 -0.1556 -0.5171
vn -0.2006 -0.5100 0.8365
vn -0.4894 -0.4799 0.7281
vn -0.3830 -0.7265 0.5706
vn -0.1326 -0.7264 0.6743
vn -0.8417 0.1557 0.5171
vn -0.9608 0.1556 0.2295
vn -0.9608 -0.1557 0.2295
vn -0.8416 -0.1556 0.5171
vn 0.9608 0.1557 0.2295
vn 0.8416 0.1556 0.5171
vn 0.8417 -0.1557 0.5171
vn 0.9608 -0.1556 0.2295
vn 0.2006 -0.5100 -0.8365
vn 0.4894 -0.4799 -0.7281
vn 0.3830 -0.7265 -0.5706
vn 0.1725 -0.7014 -0.6915
vn -0.7333 -0.5100 0.4496
vn -0.8609 -0.4799 0.1688
vn -0.6743 -0.7265 0.1326
vn -0.5706 -0.7264 0.3830
vn -0.9608 0.1557 -0.2295
vn -0.8416 0.1556 -0.5171
vn -0.8417 -0.1557 -0.5171
vn -0.9608 -0.1556 -0.2295
vn 0.5171 0.1557 0.8417
vn 0.2295 0.1556 0.9608
vn 0.2295 -0.1557 0.9608
vn 0.5171 -0.1556 0.8416
vn 0.8365 -0.5100 0.2006
vn 0.7281 -0.4799 0.4894
vn 0.5706 -0.7265 0.3830
vn 0.6743 -0.7264 0.1326
vn -0.8365 -0.5100 -0.2006
vn -0.7281 -0.4799 -0.4894
vn -0.5706 -0.7265 -0.3830
vn -0.6743 -0.7264 -0.1326
vn -0.5171 0.1557 -0.8417
vn -0.2295 0.1556 -0.9608
vn -0.2295 -0.1557 -0.9608
vn -0.5171 -0.1556 -0.8416
vn 0.4496 -0.5100 0.7333
vn 0.1688 -0.4799 0.8609
vn 0.1326 -0.7265 0.6743
vn 0.3830 -0.7264 0.5706
vn -0.4496 -0.5100 -0.7333
vn -0.2006 -0.5100 -0.8365
vn -0.1326 -0.7265 -0.6743
vn -0.3830 -0.7264 -0.5706
vn -0.2295 0.1557 0.9608
vn -0.5171 0.1556 0.8416
vn -0.5171 -0.1557 0.8417
vn -0.2295 -0.1556 0.9608
vn 0.2295 0.1557 -0.9608
vn 0.5171 0.1556 -0.8416
vn 0.5171 -0.1557 -0.8417
vn 0.2295 -0.1556 -0.9608
vn -0.2616 -0.1245 0.9571
vn -0.2617 0.1245 0.9571
vn -0.4918 0.1245 0.8618
vn -0.4917 -0.1245 0.8618
vn 0.1919 -0.9588 0.2096
vn 0.3203 -0.8612 0.3946
vn 0.0525 -0.8612 0.5055
vn 0.0125 -0.9588 0.2839
vn -0.2839 -0.9588 -0.0125
vn -0.5056 -0.8612 -0.0525
vn -0.3946 -0.8612 -0.3203
vn -0.2096 -0.9588 -0.1919
vn 0.2839 -0.9588 0.0125
vn 0.5056 -0.8612 0.0525
vn 0.3946 -0.8612 0.3203
vn 0.2096 -0.9588 0.1919
vn -0.2096 -0.9588 0.1919
vn -0.3946 -0.8612 0.3203
vn -0.5055 -0.8612 0.0525
vn -0.2839 -0.9588 0.0125
vn -0.1919 -0.9588 -0.2096
vn -0.3203 -0.8612 -0.3946
vn -0.0525 -0.8612 -0.5055
vn -0.0125 -0.9588 -0.2839
vn 0.2096 -0.9588 -0.1919
vn 0.3946 -0.8612 -0.3203
vn 0.5055 -0.8612 -0.0525
vn 0.2839 -0.9588 -0.0125
vn -0.0125 -0.9588 0.2839
vn -0.0525 -0.8612 0.5056
vn -0.3203 -0.8612 0.3946
vn -0.1919 -0.9588 0.2096
vn 0.0125 -0.9588 -0.2839
vn 0.0525 -0.8612 -0.5056
vn 0.3203 -0.8612 -0.3946
vn 0.1919 -0.9588 -0.2096
vn -0.1160 -0.9733 0.1982
vn -0.0779 -0.9790 -0.1882
vn 0.2222 -0.9733 0.0581
vn -0.9571 -0.1245 -0.2616
vn -0.9571 0.1245 -0.2617
vn -0.8618 0.1245 -0.4918
vn -0.8618 -0.1245 -0.4917
vn 0.9571 -0.1245 0.2616
vn 0.9571 0.1245 0.2617
vn 0.8618 0.1245 0.4918
vn 0.8618 -0.1245 0.4917
vn -0.4918 -0.1245 -0.8618
vn -0.4917 0.1245 -0.8618
vn -0.2616 0.1245 -0.9571
vn -0.2617 -0.1245 -0.9571
vn 0.4918 -0.1245 0.8618
vn 0.4917 0.1245 0.8618
vn 0.2616 0.1245 0.9571
vn 0.2617 -0.1245 0.9571
vn -0.8618 -0.1245 0.4918
vn -0.8618 0.1245 0.4917
vn -0.9571 0.1245 0.2616
vn -0.9571 -0.1245 0.2617
vn -0.1727 0.9844 -0.0343
vn -0.0343 0.9844 0.1727
vn 0.1464 0.9844 0.0978
vn 0.0978 0.9844 -0.1464
vn 0.2616 -0.1245 -0.9571
vn 0.2617 0.1245 -0.9571
vn 0.4918 0.1245 -0.8618
vn 0.4917 -0.1245 -0.8618
vn 0.8618 -0.1245 -0.4918
vn 0.8618 0.1245 -0.4917
vn 0.9571 0.1245 -0.2616
vn 0.9571 -0.1245 -0.2617
vn -0.8982 0.3745 0.2301
vn -0.9540 0.1347 0.2679
vn -0.8640 0.1347 0.4851
vn -0.7979 0.3745 0.4724
vn -0.0979 0.9844 -0.1464
vn -0.1464 0.9844 0.0979
vn 0.0344 0.9844 0.1727
vn 0.1727 0.9844 -0.0344
vn 0.1464 0.9844 -0.0979
vn -0.1727 0.9844 0.0344
vn 0.0979 0.9844 0.1464
vn -0.0344 0.9844 -0.1727
vn 0.0343 0.9844 -0.1727
vn -0.0978 0.9844 0.1464
vn 0.1727 0.9844 0.0343
vn -0.1464 0.9844 -0.0978
vn -0.1627 0.9844 -0.0674
vn -0.2301 0.3745 -0.8982
vn -0.2679 0.1347 -0.9540
vn -0.4851 0.1347 -0.8640
vn -0.4724 0.3745 -0.7979
vn 0.8982 0.3745 -0.2301
vn 0.9540 0.1347 -0.2679
vn 0.8640 0.1347 -0.4851
vn 0.7979 0.3745 -0.4724
vn 0.2301 0.3745 0.8982
vn 0.2679 0.1347 0.9540
vn 0.4851 0.1347 0.8640
vn 0.4724 0.3745 0.7979
vn -0.4725 0.3745 0.7979
vn -0.4851 0.1347 0.8640
vn -0.2679 0.1347 0.9540
vn -0.2301 0.3745 0.8982
vn -0.7979 0.3745 -0.4725
vn -0.8640 0.1347 -0.4851
vn -0.9540 0.1347 -0.2679
vn -0.8982 0.3745 -0.2301
vn 0.4725 0.3745 -0.7979
vn 0.4851 0.1347 -0.8640
vn 0.2679 0.1347 -0.9540
vn 0.2301 0.3745 -0.8982
vn 0.7979 0.3745 0.4725
vn 0.8640 0.1347 0.4851
vn 0.9540 0.1347 0.2679
vn 0.8982 0.3745 0.2301
vn -0.2222 -0.9733 0.0581
vn 0.0780 -0.9790 -0.1882
vn 0.1160 -0.9733 0.1982
vn -0.1982 -0.9733 -0.1160
vn 0.1882 -0.9790 -0.0779
vn -0.0581 -0.9733 0.2222
vn -0.0581 -0.9733 -0.2222
vn 0.1882 -0.9790 0.0780
vn -0.1982 -0.9733 0.1160
vn 0.1160 -0.9733 -0.1982
vn 0.0779 -0.9790 0.1882
vn -0.2222 -0.9733 -0.0581
vn 0.2222 -0.9733 -0.0581
vn -0.0780 -0.9790 0.1882
vn -0.1160 -0.9733 -0.1982
vn 0.1982 -0.9733 0.1160
vn -0.1882 -0.9790 0.0779
vn 0.0581 -0.9733 -0.2222
vn 0.0581 -0.9733 0.2222
vn -0.1882 -0.9790 -0.0780
vn 0.1982 -0.9733 -0.1160
vn 0.1627 0.9844 0.0674
vn 0.0674 0.9844 -0.1627
vn -0.0674 0.9844 0.1627
vn -0.1627 0.9844 0.0674
vn -0.0674 0.9844 -0.1627
vn 0.1627 0.9844 -0.0674
vn 0.0674 0.9844 0.1627
vn 0.7333 -0.5100 -0.4496
vn 0.8609 -0.4799 -0.1688
vn 0.6743 -0.7265 -0.1326
vn 0.5706 -0.7264 -0.3830
usemtl None
s off
f 12/1/1 14/2/2 13/3/3 11/4/4
f 7/5/5 8/6/6 20/7/7 18/8/8
f 20/7/9 22/9/10 21/10/11 19/11/12
f 14/2/13 16/12/14 15/13/15 13/3/16
f 3/14/17 4/15/18 12/1/19 2/16/20
f 8/6/21 9/17/22 22/9/23 20/7/24
f 22/9/25 24/18/26 23/19/27 21/10/28
f 16/12/29 18/8/30 17/20/31 15/13/32
f 5/21/33 6/22/34 16/12/35 14/2/36
f 9/17/37 10/23/38 24/18/39 22/9/40
f 24/18/41 2/24/42 1/25/43 23/19/44
f 6/22/45 7/5/46 18/8/47 16/12/48
f 10/23/49 3/26/50 2/24/51 24/18/52
f 18/8/53 20/7/54 19/11/55 17/20/56
f 2/16/57 12/1/58 11/4/59 1/27/60
f 29/28/61 37/29/62 38/30/63 30/31/64
f 6/22/65 28/32/66 29/28/67 7/5/68
f 9/17/69 31/33/70 32/34/71 10/23/72
f 5/21/73 27/35/74 28/32/75 6/22/76
f 8/6/77 30/31/78 31/33/79 9/17/80
f 10/23/81 32/34/82 25/36/83 3/26/84
f 4/15/85 26/37/86 27/35/87 5/21/88
f 7/5/89 29/28/90 30/31/91 8/6/92
f 3/14/93 25/38/94 26/37/95 4/15/96
f 17/20/97 57/39/98 15/13/99
f 31/33/100 39/40/101 40/41/102 32/34/103
f 27/35/104 35/42/105 36/43/106 28/32/107
f 32/34/108 40/41/109 33/44/110 25/36/111
f 28/32/112 36/43/113 37/29/114 29/28/115
f 30/31/116 38/30/117 39/40/118 31/33/119
f 40/41/120 41/45/121 42/46/122 33/44/123
f 25/38/124 33/47/125 34/48/126 26/37/127
f 26/37/128 34/48/129 35/42/130 27/35/131
f 48/49/132 56/50/133 55/51/134 47/52/135
f 33/47/136 42/53/137 48/49/138 34/48/139
f 35/42/140 47/52/136 46/54/141 36/43/138
f 37/29/142 45/55/140 44/56/143 38/30/141
f 39/40/137 43/57/142 41/45/139 40/41/143
f 34/48/144 48/49/120 47/52/145 35/42/122
f 36/43/146 46/54/144 45/55/147 37/29/145
f 38/30/121 44/56/146 43/57/123 39/40/147
f 54/58/138 55/51/140 58/59/148
f 46/54/149 54/58/150 53/60/151 45/55/152
f 44/56/153 52/61/154 51/62/155 43/57/156
f 41/45/157 49/63/158 50/64/159 42/46/160
f 42/53/161 50/65/162 56/50/163 48/49/164
f 47/52/165 55/51/166 54/58/167 46/54/168
f 45/55/169 53/60/170 52/61/171 44/56/172
f 43/57/173 51/62/174 49/63/175 41/45/176
f 19/11/177 57/66/178 17/20/179
f 21/10/180 57/67/181 19/11/182
f 23/19/183 57/68/184 21/10/185
f 1/25/186 57/69/187 23/19/188
f 11/4/189 57/70/190 1/27/191
f 13/3/192 57/71/193 11/4/194
f 15/13/195 57/72/196 13/3/197
f 49/63/143 51/62/137 58/59/198
f 58/59/199 52/61/141 53/60/142
f 58/59/200 56/50/139 50/65/136
f 58/59/201 55/51/122 56/50/144
f 53/60/145 54/58/146 58/59/202
f 58/59/203 51/62/147 52/61/121
f 50/65/123 49/63/120 58/59/204
f 4/15/205 5/21/206 14/2/207 12/1/208
